<mxfile host="Electron" agent="Mozilla/5.0 (Macintosh; Intel Mac OS X 10_15_7) AppleWebKit/537.36 (KHTML, like Gecko) draw.io/26.0.15 Chrome/132.0.6834.196 Electron/34.2.0 Safari/537.36" version="26.0.15">
  <diagram name="Page-1" id="G3uogXjdxwqKhTdGxAHg">
    <mxGraphModel dx="1100" dy="629" grid="1" gridSize="10" guides="1" tooltips="1" connect="1" arrows="1" fold="1" page="1" pageScale="1" pageWidth="1100" pageHeight="850" math="0" shadow="0">
      <root>
        <mxCell id="0" />
        <mxCell id="1" parent="0" />
        <mxCell id="UIGNIDbdrB7S6Pe9TIcU-1" value="Horizontal Sync" style="rounded=1;whiteSpace=wrap;html=1;container=1;recursiveResize=0;verticalAlign=top;arcSize=6;fontStyle=1;autosize=0;points=[];absoluteArcSize=1;shadow=1;strokeColor=#6c8ebf;fillColor=#dae8fc;fontFamily=Helvetica;fontSize=11;gradientColor=#0050EF;fontColor=default;" vertex="1" parent="1">
          <mxGeometry x="160" y="80" width="138" height="100" as="geometry">
            <mxRectangle x="-98" y="-1230" width="99" height="26" as="alternateBounds" />
          </mxGeometry>
        </mxCell>
        <mxCell id="UIGNIDbdrB7S6Pe9TIcU-2" value="" style="rounded=1;whiteSpace=wrap;html=1;sketch=0;points=[[0,0.5,0,0,0],[1,0.5,0,0,0]];arcSize=50;fontFamily=Helvetica;fontSize=11;fontColor=default;" vertex="1" parent="UIGNIDbdrB7S6Pe9TIcU-1">
          <mxGeometry x="-16.75" y="27.5" width="36.75" height="25" as="geometry" />
        </mxCell>
        <mxCell id="UIGNIDbdrB7S6Pe9TIcU-3" value="" style="rounded=1;whiteSpace=wrap;html=1;sketch=0;points=[[0,0.5,0,0,0],[1,0.5,0,0,0]];fillColor=#1ba1e2;fontColor=#ffffff;strokeColor=#006EAF;arcSize=50;fontFamily=Helvetica;fontSize=11;" vertex="1" parent="UIGNIDbdrB7S6Pe9TIcU-1">
          <mxGeometry x="120" y="27.5" width="36" height="25" as="geometry" />
        </mxCell>
        <mxCell id="UIGNIDbdrB7S6Pe9TIcU-4" value="✗" style="rounded=1;whiteSpace=wrap;html=1;sketch=0;points=[[0,0.5,0,0,0],[1,0.5,0,0,0]];fillColor=#1ba1e2;fontColor=#ffffff;strokeColor=#006EAF;arcSize=50;fontFamily=Helvetica;fontSize=11;textOpacity=30;" vertex="1" parent="UIGNIDbdrB7S6Pe9TIcU-1">
          <mxGeometry x="120" y="60" width="36" height="25" as="geometry" />
        </mxCell>
        <mxCell id="UIGNIDbdrB7S6Pe9TIcU-5" value="Vertical Sync" style="rounded=1;whiteSpace=wrap;html=1;container=1;recursiveResize=0;verticalAlign=top;arcSize=6;fontStyle=1;autosize=0;points=[];absoluteArcSize=1;shadow=1;strokeColor=#6c8ebf;fillColor=#dae8fc;fontFamily=Helvetica;fontSize=11;gradientColor=#0050EF;fontColor=default;" vertex="1" parent="1">
          <mxGeometry x="520" y="80" width="138" height="100" as="geometry">
            <mxRectangle x="-98" y="-1230" width="99" height="26" as="alternateBounds" />
          </mxGeometry>
        </mxCell>
        <mxCell id="UIGNIDbdrB7S6Pe9TIcU-6" value="" style="rounded=1;whiteSpace=wrap;html=1;sketch=0;points=[[0,0.5,0,0,0],[1,0.5,0,0,0]];arcSize=50;fontFamily=Helvetica;fontSize=11;fontColor=default;" vertex="1" parent="UIGNIDbdrB7S6Pe9TIcU-5">
          <mxGeometry x="-16.75" y="27.5" width="36.75" height="25" as="geometry" />
        </mxCell>
        <mxCell id="UIGNIDbdrB7S6Pe9TIcU-7" value="" style="rounded=1;whiteSpace=wrap;html=1;sketch=0;points=[[0,0.5,0,0,0],[1,0.5,0,0,0]];fillColor=#1ba1e2;fontColor=#ffffff;strokeColor=#006EAF;arcSize=50;fontFamily=Helvetica;fontSize=11;" vertex="1" parent="UIGNIDbdrB7S6Pe9TIcU-5">
          <mxGeometry x="120" y="27.5" width="36" height="25" as="geometry" />
        </mxCell>
        <mxCell id="UIGNIDbdrB7S6Pe9TIcU-8" value="✗" style="rounded=1;whiteSpace=wrap;html=1;sketch=0;points=[[0,0.5,0,0,0],[1,0.5,0,0,0]];fillColor=#1ba1e2;fontColor=#ffffff;strokeColor=#006EAF;arcSize=50;fontFamily=Helvetica;fontSize=11;textOpacity=30;" vertex="1" parent="UIGNIDbdrB7S6Pe9TIcU-5">
          <mxGeometry x="120" y="60" width="36" height="25" as="geometry" />
        </mxCell>
        <mxCell id="UIGNIDbdrB7S6Pe9TIcU-9" value="Score Sound Timer" style="rounded=1;whiteSpace=wrap;html=1;container=1;recursiveResize=0;verticalAlign=top;arcSize=6;fontStyle=1;autosize=0;points=[];absoluteArcSize=1;shadow=1;strokeColor=#6c8ebf;fillColor=#dae8fc;fontFamily=Helvetica;fontSize=11;gradientColor=#0050EF;fontColor=default;" vertex="1" parent="1">
          <mxGeometry x="160" y="240" width="138" height="100" as="geometry">
            <mxRectangle x="-98" y="-1230" width="99" height="26" as="alternateBounds" />
          </mxGeometry>
        </mxCell>
        <mxCell id="UIGNIDbdrB7S6Pe9TIcU-10" value="" style="rounded=1;whiteSpace=wrap;html=1;sketch=0;points=[[0,0.5,0,0,0],[1,0.5,0,0,0]];arcSize=50;fontFamily=Helvetica;fontSize=11;fontColor=default;" vertex="1" parent="UIGNIDbdrB7S6Pe9TIcU-9">
          <mxGeometry x="-16.75" y="27.5" width="36.75" height="25" as="geometry" />
        </mxCell>
        <mxCell id="UIGNIDbdrB7S6Pe9TIcU-11" value="" style="rounded=1;whiteSpace=wrap;html=1;sketch=0;points=[[0,0.5,0,0,0],[1,0.5,0,0,0]];fillColor=#1ba1e2;fontColor=#ffffff;strokeColor=#006EAF;arcSize=50;fontFamily=Helvetica;fontSize=11;" vertex="1" parent="UIGNIDbdrB7S6Pe9TIcU-9">
          <mxGeometry x="120" y="27.5" width="36" height="25" as="geometry" />
        </mxCell>
        <mxCell id="UIGNIDbdrB7S6Pe9TIcU-12" value="✗" style="rounded=1;whiteSpace=wrap;html=1;sketch=0;points=[[0,0.5,0,0,0],[1,0.5,0,0,0]];fillColor=#1ba1e2;fontColor=#ffffff;strokeColor=#006EAF;arcSize=50;fontFamily=Helvetica;fontSize=11;textOpacity=30;" vertex="1" parent="UIGNIDbdrB7S6Pe9TIcU-9">
          <mxGeometry x="120" y="60" width="36" height="25" as="geometry" />
        </mxCell>
        <mxCell id="UIGNIDbdrB7S6Pe9TIcU-13" value="Ball Vpos" style="rounded=1;whiteSpace=wrap;html=1;container=1;recursiveResize=0;verticalAlign=top;arcSize=6;fontStyle=1;autosize=0;points=[];absoluteArcSize=1;shadow=1;strokeColor=#6c8ebf;fillColor=#dae8fc;fontFamily=Helvetica;fontSize=11;gradientColor=#0050EF;fontColor=default;" vertex="1" parent="1">
          <mxGeometry x="481" y="240" width="138" height="100" as="geometry">
            <mxRectangle x="-98" y="-1230" width="99" height="26" as="alternateBounds" />
          </mxGeometry>
        </mxCell>
        <mxCell id="UIGNIDbdrB7S6Pe9TIcU-14" value="" style="rounded=1;whiteSpace=wrap;html=1;sketch=0;points=[[0,0.5,0,0,0],[1,0.5,0,0,0]];arcSize=50;fontFamily=Helvetica;fontSize=11;fontColor=default;" vertex="1" parent="UIGNIDbdrB7S6Pe9TIcU-13">
          <mxGeometry x="-16.75" y="27.5" width="36.75" height="25" as="geometry" />
        </mxCell>
        <mxCell id="UIGNIDbdrB7S6Pe9TIcU-15" value="" style="rounded=1;whiteSpace=wrap;html=1;sketch=0;points=[[0,0.5,0,0,0],[1,0.5,0,0,0]];fillColor=#1ba1e2;fontColor=#ffffff;strokeColor=#006EAF;arcSize=50;fontFamily=Helvetica;fontSize=11;" vertex="1" parent="UIGNIDbdrB7S6Pe9TIcU-13">
          <mxGeometry x="120" y="27.5" width="36" height="25" as="geometry" />
        </mxCell>
        <mxCell id="UIGNIDbdrB7S6Pe9TIcU-16" value="✗" style="rounded=1;whiteSpace=wrap;html=1;sketch=0;points=[[0,0.5,0,0,0],[1,0.5,0,0,0]];fillColor=#1ba1e2;fontColor=#ffffff;strokeColor=#006EAF;arcSize=50;fontFamily=Helvetica;fontSize=11;textOpacity=30;" vertex="1" parent="UIGNIDbdrB7S6Pe9TIcU-13">
          <mxGeometry x="120" y="60" width="36" height="25" as="geometry" />
        </mxCell>
        <mxCell id="UIGNIDbdrB7S6Pe9TIcU-17" value="BCD to 7 Digit" style="rounded=1;whiteSpace=wrap;html=1;container=1;recursiveResize=0;verticalAlign=top;arcSize=6;fontStyle=1;autosize=0;points=[];absoluteArcSize=1;shadow=1;strokeColor=#6c8ebf;fillColor=#dae8fc;fontFamily=Helvetica;fontSize=11;gradientColor=#0050EF;fontColor=default;" vertex="1" parent="1">
          <mxGeometry x="160" y="400" width="138" height="100" as="geometry">
            <mxRectangle x="-98" y="-1230" width="99" height="26" as="alternateBounds" />
          </mxGeometry>
        </mxCell>
        <mxCell id="UIGNIDbdrB7S6Pe9TIcU-18" value="" style="rounded=1;whiteSpace=wrap;html=1;sketch=0;points=[[0,0.5,0,0,0],[1,0.5,0,0,0]];arcSize=50;fontFamily=Helvetica;fontSize=11;fontColor=default;" vertex="1" parent="UIGNIDbdrB7S6Pe9TIcU-17">
          <mxGeometry x="-16.75" y="27.5" width="36.75" height="25" as="geometry" />
        </mxCell>
        <mxCell id="UIGNIDbdrB7S6Pe9TIcU-19" value="" style="rounded=1;whiteSpace=wrap;html=1;sketch=0;points=[[0,0.5,0,0,0],[1,0.5,0,0,0]];fillColor=#1ba1e2;fontColor=#ffffff;strokeColor=#006EAF;arcSize=50;fontFamily=Helvetica;fontSize=11;" vertex="1" parent="UIGNIDbdrB7S6Pe9TIcU-17">
          <mxGeometry x="120" y="27.5" width="36" height="25" as="geometry" />
        </mxCell>
        <mxCell id="UIGNIDbdrB7S6Pe9TIcU-20" value="✗" style="rounded=1;whiteSpace=wrap;html=1;sketch=0;points=[[0,0.5,0,0,0],[1,0.5,0,0,0]];fillColor=#1ba1e2;fontColor=#ffffff;strokeColor=#006EAF;arcSize=50;fontFamily=Helvetica;fontSize=11;textOpacity=30;" vertex="1" parent="UIGNIDbdrB7S6Pe9TIcU-17">
          <mxGeometry x="120" y="60" width="36" height="25" as="geometry" />
        </mxCell>
        <mxCell id="UIGNIDbdrB7S6Pe9TIcU-21" value="7 Digit to Pixel" style="rounded=1;whiteSpace=wrap;html=1;container=1;recursiveResize=0;verticalAlign=top;arcSize=6;fontStyle=1;autosize=0;points=[];absoluteArcSize=1;shadow=1;strokeColor=#6c8ebf;fillColor=#dae8fc;fontFamily=Helvetica;fontSize=11;gradientColor=#0050EF;fontColor=default;" vertex="1" parent="1">
          <mxGeometry x="440" y="400" width="138" height="100" as="geometry">
            <mxRectangle x="-98" y="-1230" width="99" height="26" as="alternateBounds" />
          </mxGeometry>
        </mxCell>
        <mxCell id="UIGNIDbdrB7S6Pe9TIcU-22" value="" style="rounded=1;whiteSpace=wrap;html=1;sketch=0;points=[[0,0.5,0,0,0],[1,0.5,0,0,0]];arcSize=50;fontFamily=Helvetica;fontSize=11;fontColor=default;" vertex="1" parent="UIGNIDbdrB7S6Pe9TIcU-21">
          <mxGeometry x="-16.75" y="27.5" width="36.75" height="25" as="geometry" />
        </mxCell>
        <mxCell id="UIGNIDbdrB7S6Pe9TIcU-23" value="" style="rounded=1;whiteSpace=wrap;html=1;sketch=0;points=[[0,0.5,0,0,0],[1,0.5,0,0,0]];fillColor=#1ba1e2;fontColor=#ffffff;strokeColor=#006EAF;arcSize=50;fontFamily=Helvetica;fontSize=11;" vertex="1" parent="UIGNIDbdrB7S6Pe9TIcU-21">
          <mxGeometry x="120" y="27.5" width="36" height="25" as="geometry" />
        </mxCell>
        <mxCell id="UIGNIDbdrB7S6Pe9TIcU-24" value="✗" style="rounded=1;whiteSpace=wrap;html=1;sketch=0;points=[[0,0.5,0,0,0],[1,0.5,0,0,0]];fillColor=#1ba1e2;fontColor=#ffffff;strokeColor=#006EAF;arcSize=50;fontFamily=Helvetica;fontSize=11;textOpacity=30;" vertex="1" parent="UIGNIDbdrB7S6Pe9TIcU-21">
          <mxGeometry x="120" y="60" width="36" height="25" as="geometry" />
        </mxCell>
        <mxCell id="UIGNIDbdrB7S6Pe9TIcU-25" value="Paddle 1 Vpos" style="rounded=1;whiteSpace=wrap;html=1;container=1;recursiveResize=0;verticalAlign=top;arcSize=6;fontStyle=1;autosize=0;points=[];absoluteArcSize=1;shadow=1;strokeColor=#6c8ebf;fillColor=#dae8fc;fontFamily=Helvetica;fontSize=11;gradientColor=#0050EF;fontColor=default;" vertex="1" parent="1">
          <mxGeometry x="160" y="560" width="138" height="100" as="geometry">
            <mxRectangle x="-98" y="-1230" width="99" height="26" as="alternateBounds" />
          </mxGeometry>
        </mxCell>
        <mxCell id="UIGNIDbdrB7S6Pe9TIcU-26" value="" style="rounded=1;whiteSpace=wrap;html=1;sketch=0;points=[[0,0.5,0,0,0],[1,0.5,0,0,0]];arcSize=50;fontFamily=Helvetica;fontSize=11;fontColor=default;" vertex="1" parent="UIGNIDbdrB7S6Pe9TIcU-25">
          <mxGeometry x="-16.75" y="27.5" width="36.75" height="25" as="geometry" />
        </mxCell>
        <mxCell id="UIGNIDbdrB7S6Pe9TIcU-27" value="" style="rounded=1;whiteSpace=wrap;html=1;sketch=0;points=[[0,0.5,0,0,0],[1,0.5,0,0,0]];fillColor=#1ba1e2;fontColor=#ffffff;strokeColor=#006EAF;arcSize=50;fontFamily=Helvetica;fontSize=11;" vertex="1" parent="UIGNIDbdrB7S6Pe9TIcU-25">
          <mxGeometry x="120" y="27.5" width="36" height="25" as="geometry" />
        </mxCell>
        <mxCell id="UIGNIDbdrB7S6Pe9TIcU-28" value="✗" style="rounded=1;whiteSpace=wrap;html=1;sketch=0;points=[[0,0.5,0,0,0],[1,0.5,0,0,0]];fillColor=#1ba1e2;fontColor=#ffffff;strokeColor=#006EAF;arcSize=50;fontFamily=Helvetica;fontSize=11;textOpacity=30;" vertex="1" parent="UIGNIDbdrB7S6Pe9TIcU-25">
          <mxGeometry x="120" y="60" width="36" height="25" as="geometry" />
        </mxCell>
        <mxCell id="UIGNIDbdrB7S6Pe9TIcU-29" value="Paddle 2 Vpos" style="rounded=1;whiteSpace=wrap;html=1;container=1;recursiveResize=0;verticalAlign=top;arcSize=6;fontStyle=1;autosize=0;points=[];absoluteArcSize=1;shadow=1;strokeColor=#6c8ebf;fillColor=#dae8fc;fontFamily=Helvetica;fontSize=11;gradientColor=#0050EF;fontColor=default;" vertex="1" parent="1">
          <mxGeometry x="430" y="560" width="138" height="100" as="geometry">
            <mxRectangle x="-98" y="-1230" width="99" height="26" as="alternateBounds" />
          </mxGeometry>
        </mxCell>
        <mxCell id="UIGNIDbdrB7S6Pe9TIcU-30" value="" style="rounded=1;whiteSpace=wrap;html=1;sketch=0;points=[[0,0.5,0,0,0],[1,0.5,0,0,0]];arcSize=50;fontFamily=Helvetica;fontSize=11;fontColor=default;" vertex="1" parent="UIGNIDbdrB7S6Pe9TIcU-29">
          <mxGeometry x="-16.75" y="27.5" width="36.75" height="25" as="geometry" />
        </mxCell>
        <mxCell id="UIGNIDbdrB7S6Pe9TIcU-31" value="" style="rounded=1;whiteSpace=wrap;html=1;sketch=0;points=[[0,0.5,0,0,0],[1,0.5,0,0,0]];fillColor=#1ba1e2;fontColor=#ffffff;strokeColor=#006EAF;arcSize=50;fontFamily=Helvetica;fontSize=11;" vertex="1" parent="UIGNIDbdrB7S6Pe9TIcU-29">
          <mxGeometry x="120" y="27.5" width="36" height="25" as="geometry" />
        </mxCell>
        <mxCell id="UIGNIDbdrB7S6Pe9TIcU-32" value="✗" style="rounded=1;whiteSpace=wrap;html=1;sketch=0;points=[[0,0.5,0,0,0],[1,0.5,0,0,0]];fillColor=#1ba1e2;fontColor=#ffffff;strokeColor=#006EAF;arcSize=50;fontFamily=Helvetica;fontSize=11;textOpacity=30;" vertex="1" parent="UIGNIDbdrB7S6Pe9TIcU-29">
          <mxGeometry x="120" y="60" width="36" height="25" as="geometry" />
        </mxCell>
        <mxCell id="UIGNIDbdrB7S6Pe9TIcU-33" value="Paddle Hpos" style="rounded=1;whiteSpace=wrap;html=1;container=1;recursiveResize=0;verticalAlign=top;arcSize=6;fontStyle=1;autosize=0;points=[];absoluteArcSize=1;shadow=1;strokeColor=#6c8ebf;fillColor=#dae8fc;fontFamily=Helvetica;fontSize=11;gradientColor=#0050EF;fontColor=default;" vertex="1" parent="1">
          <mxGeometry x="720" y="560" width="138" height="100" as="geometry">
            <mxRectangle x="-98" y="-1230" width="99" height="26" as="alternateBounds" />
          </mxGeometry>
        </mxCell>
        <mxCell id="UIGNIDbdrB7S6Pe9TIcU-34" value="" style="rounded=1;whiteSpace=wrap;html=1;sketch=0;points=[[0,0.5,0,0,0],[1,0.5,0,0,0]];arcSize=50;fontFamily=Helvetica;fontSize=11;fontColor=default;" vertex="1" parent="UIGNIDbdrB7S6Pe9TIcU-33">
          <mxGeometry x="-16.75" y="27.5" width="36.75" height="25" as="geometry" />
        </mxCell>
        <mxCell id="UIGNIDbdrB7S6Pe9TIcU-35" value="" style="rounded=1;whiteSpace=wrap;html=1;sketch=0;points=[[0,0.5,0,0,0],[1,0.5,0,0,0]];fillColor=#1ba1e2;fontColor=#ffffff;strokeColor=#006EAF;arcSize=50;fontFamily=Helvetica;fontSize=11;" vertex="1" parent="UIGNIDbdrB7S6Pe9TIcU-33">
          <mxGeometry x="120" y="27.5" width="36" height="25" as="geometry" />
        </mxCell>
        <mxCell id="UIGNIDbdrB7S6Pe9TIcU-36" value="✗" style="rounded=1;whiteSpace=wrap;html=1;sketch=0;points=[[0,0.5,0,0,0],[1,0.5,0,0,0]];fillColor=#1ba1e2;fontColor=#ffffff;strokeColor=#006EAF;arcSize=50;fontFamily=Helvetica;fontSize=11;textOpacity=30;" vertex="1" parent="UIGNIDbdrB7S6Pe9TIcU-33">
          <mxGeometry x="120" y="60" width="36" height="25" as="geometry" />
        </mxCell>
        <mxCell id="UIGNIDbdrB7S6Pe9TIcU-37" value="Ball Hpos" style="rounded=1;whiteSpace=wrap;html=1;container=1;recursiveResize=0;verticalAlign=top;arcSize=6;fontStyle=1;autosize=0;points=[];absoluteArcSize=1;shadow=1;strokeColor=#6c8ebf;fillColor=#dae8fc;fontFamily=Helvetica;fontSize=11;gradientColor=#0050EF;fontColor=default;" vertex="1" parent="1">
          <mxGeometry x="160" y="710" width="138" height="100" as="geometry">
            <mxRectangle x="-98" y="-1230" width="99" height="26" as="alternateBounds" />
          </mxGeometry>
        </mxCell>
        <mxCell id="UIGNIDbdrB7S6Pe9TIcU-38" value="" style="rounded=1;whiteSpace=wrap;html=1;sketch=0;points=[[0,0.5,0,0,0],[1,0.5,0,0,0]];arcSize=50;fontFamily=Helvetica;fontSize=11;fontColor=default;" vertex="1" parent="UIGNIDbdrB7S6Pe9TIcU-37">
          <mxGeometry x="-16.75" y="27.5" width="36.75" height="25" as="geometry" />
        </mxCell>
        <mxCell id="UIGNIDbdrB7S6Pe9TIcU-39" value="" style="rounded=1;whiteSpace=wrap;html=1;sketch=0;points=[[0,0.5,0,0,0],[1,0.5,0,0,0]];fillColor=#1ba1e2;fontColor=#ffffff;strokeColor=#006EAF;arcSize=50;fontFamily=Helvetica;fontSize=11;" vertex="1" parent="UIGNIDbdrB7S6Pe9TIcU-37">
          <mxGeometry x="120" y="27.5" width="36" height="25" as="geometry" />
        </mxCell>
        <mxCell id="UIGNIDbdrB7S6Pe9TIcU-40" value="✗" style="rounded=1;whiteSpace=wrap;html=1;sketch=0;points=[[0,0.5,0,0,0],[1,0.5,0,0,0]];fillColor=#1ba1e2;fontColor=#ffffff;strokeColor=#006EAF;arcSize=50;fontFamily=Helvetica;fontSize=11;textOpacity=30;" vertex="1" parent="UIGNIDbdrB7S6Pe9TIcU-37">
          <mxGeometry x="120" y="60" width="36" height="25" as="geometry" />
        </mxCell>
        <mxCell id="UIGNIDbdrB7S6Pe9TIcU-41" value="Ball Vpos" style="rounded=1;whiteSpace=wrap;html=1;container=1;recursiveResize=0;verticalAlign=top;arcSize=6;fontStyle=1;autosize=0;points=[];absoluteArcSize=1;shadow=1;strokeColor=#6c8ebf;fillColor=#dae8fc;fontFamily=Helvetica;fontSize=11;gradientColor=#0050EF;fontColor=default;" vertex="1" parent="1">
          <mxGeometry x="440" y="710" width="138" height="100" as="geometry">
            <mxRectangle x="-98" y="-1230" width="99" height="26" as="alternateBounds" />
          </mxGeometry>
        </mxCell>
        <mxCell id="UIGNIDbdrB7S6Pe9TIcU-42" value="" style="rounded=1;whiteSpace=wrap;html=1;sketch=0;points=[[0,0.5,0,0,0],[1,0.5,0,0,0]];arcSize=50;fontFamily=Helvetica;fontSize=11;fontColor=default;" vertex="1" parent="UIGNIDbdrB7S6Pe9TIcU-41">
          <mxGeometry x="-16.75" y="27.5" width="36.75" height="25" as="geometry" />
        </mxCell>
        <mxCell id="UIGNIDbdrB7S6Pe9TIcU-43" value="" style="rounded=1;whiteSpace=wrap;html=1;sketch=0;points=[[0,0.5,0,0,0],[1,0.5,0,0,0]];fillColor=#1ba1e2;fontColor=#ffffff;strokeColor=#006EAF;arcSize=50;fontFamily=Helvetica;fontSize=11;" vertex="1" parent="UIGNIDbdrB7S6Pe9TIcU-41">
          <mxGeometry x="120" y="27.5" width="36" height="25" as="geometry" />
        </mxCell>
        <mxCell id="UIGNIDbdrB7S6Pe9TIcU-44" value="✗" style="rounded=1;whiteSpace=wrap;html=1;sketch=0;points=[[0,0.5,0,0,0],[1,0.5,0,0,0]];fillColor=#1ba1e2;fontColor=#ffffff;strokeColor=#006EAF;arcSize=50;fontFamily=Helvetica;fontSize=11;textOpacity=30;" vertex="1" parent="UIGNIDbdrB7S6Pe9TIcU-41">
          <mxGeometry x="120" y="60" width="36" height="25" as="geometry" />
        </mxCell>
        <mxCell id="UIGNIDbdrB7S6Pe9TIcU-45" value="Ball Paddle Collision" style="rounded=1;whiteSpace=wrap;html=1;container=1;recursiveResize=0;verticalAlign=top;arcSize=6;fontStyle=1;autosize=0;points=[];absoluteArcSize=1;shadow=1;strokeColor=#6c8ebf;fillColor=#dae8fc;fontFamily=Helvetica;fontSize=11;gradientColor=#0050EF;fontColor=default;" vertex="1" parent="1">
          <mxGeometry x="160" y="870" width="138" height="100" as="geometry">
            <mxRectangle x="-98" y="-1230" width="99" height="26" as="alternateBounds" />
          </mxGeometry>
        </mxCell>
        <mxCell id="UIGNIDbdrB7S6Pe9TIcU-46" value="" style="rounded=1;whiteSpace=wrap;html=1;sketch=0;points=[[0,0.5,0,0,0],[1,0.5,0,0,0]];arcSize=50;fontFamily=Helvetica;fontSize=11;fontColor=default;" vertex="1" parent="UIGNIDbdrB7S6Pe9TIcU-45">
          <mxGeometry x="-16.75" y="27.5" width="36.75" height="25" as="geometry" />
        </mxCell>
        <mxCell id="UIGNIDbdrB7S6Pe9TIcU-47" value="" style="rounded=1;whiteSpace=wrap;html=1;sketch=0;points=[[0,0.5,0,0,0],[1,0.5,0,0,0]];fillColor=#1ba1e2;fontColor=#ffffff;strokeColor=#006EAF;arcSize=50;fontFamily=Helvetica;fontSize=11;" vertex="1" parent="UIGNIDbdrB7S6Pe9TIcU-45">
          <mxGeometry x="120" y="27.5" width="36" height="25" as="geometry" />
        </mxCell>
        <mxCell id="UIGNIDbdrB7S6Pe9TIcU-48" value="✗" style="rounded=1;whiteSpace=wrap;html=1;sketch=0;points=[[0,0.5,0,0,0],[1,0.5,0,0,0]];fillColor=#1ba1e2;fontColor=#ffffff;strokeColor=#006EAF;arcSize=50;fontFamily=Helvetica;fontSize=11;textOpacity=30;" vertex="1" parent="UIGNIDbdrB7S6Pe9TIcU-45">
          <mxGeometry x="120" y="60" width="36" height="25" as="geometry" />
        </mxCell>
        <mxCell id="UIGNIDbdrB7S6Pe9TIcU-49" value="Ball Vertical Movement" style="rounded=1;whiteSpace=wrap;html=1;container=1;recursiveResize=0;verticalAlign=top;arcSize=6;fontStyle=1;autosize=0;points=[];absoluteArcSize=1;shadow=1;strokeColor=#6c8ebf;fillColor=#dae8fc;fontFamily=Helvetica;fontSize=11;gradientColor=#0050EF;fontColor=default;" vertex="1" parent="1">
          <mxGeometry x="440" y="870" width="138" height="100" as="geometry">
            <mxRectangle x="-98" y="-1230" width="99" height="26" as="alternateBounds" />
          </mxGeometry>
        </mxCell>
        <mxCell id="UIGNIDbdrB7S6Pe9TIcU-50" value="" style="rounded=1;whiteSpace=wrap;html=1;sketch=0;points=[[0,0.5,0,0,0],[1,0.5,0,0,0]];arcSize=50;fontFamily=Helvetica;fontSize=11;fontColor=default;" vertex="1" parent="UIGNIDbdrB7S6Pe9TIcU-49">
          <mxGeometry x="-16.75" y="27.5" width="36.75" height="25" as="geometry" />
        </mxCell>
        <mxCell id="UIGNIDbdrB7S6Pe9TIcU-51" value="" style="rounded=1;whiteSpace=wrap;html=1;sketch=0;points=[[0,0.5,0,0,0],[1,0.5,0,0,0]];fillColor=#1ba1e2;fontColor=#ffffff;strokeColor=#006EAF;arcSize=50;fontFamily=Helvetica;fontSize=11;" vertex="1" parent="UIGNIDbdrB7S6Pe9TIcU-49">
          <mxGeometry x="120" y="27.5" width="36" height="25" as="geometry" />
        </mxCell>
        <mxCell id="UIGNIDbdrB7S6Pe9TIcU-52" value="✗" style="rounded=1;whiteSpace=wrap;html=1;sketch=0;points=[[0,0.5,0,0,0],[1,0.5,0,0,0]];fillColor=#1ba1e2;fontColor=#ffffff;strokeColor=#006EAF;arcSize=50;fontFamily=Helvetica;fontSize=11;textOpacity=30;" vertex="1" parent="UIGNIDbdrB7S6Pe9TIcU-49">
          <mxGeometry x="120" y="60" width="36" height="25" as="geometry" />
        </mxCell>
        <mxCell id="UIGNIDbdrB7S6Pe9TIcU-53" value="Net" style="rounded=1;whiteSpace=wrap;html=1;container=1;recursiveResize=0;verticalAlign=top;arcSize=6;fontStyle=1;autosize=0;points=[];absoluteArcSize=1;shadow=1;strokeColor=#6c8ebf;fillColor=#dae8fc;fontFamily=Helvetica;fontSize=11;gradientColor=#0050EF;fontColor=default;" vertex="1" parent="1">
          <mxGeometry x="160" y="1040" width="138" height="100" as="geometry">
            <mxRectangle x="-98" y="-1230" width="99" height="26" as="alternateBounds" />
          </mxGeometry>
        </mxCell>
        <mxCell id="UIGNIDbdrB7S6Pe9TIcU-54" value="" style="rounded=1;whiteSpace=wrap;html=1;sketch=0;points=[[0,0.5,0,0,0],[1,0.5,0,0,0]];arcSize=50;fontFamily=Helvetica;fontSize=11;fontColor=default;" vertex="1" parent="UIGNIDbdrB7S6Pe9TIcU-53">
          <mxGeometry x="-16.75" y="27.5" width="36.75" height="25" as="geometry" />
        </mxCell>
        <mxCell id="UIGNIDbdrB7S6Pe9TIcU-55" value="" style="rounded=1;whiteSpace=wrap;html=1;sketch=0;points=[[0,0.5,0,0,0],[1,0.5,0,0,0]];fillColor=#1ba1e2;fontColor=#ffffff;strokeColor=#006EAF;arcSize=50;fontFamily=Helvetica;fontSize=11;" vertex="1" parent="UIGNIDbdrB7S6Pe9TIcU-53">
          <mxGeometry x="120" y="27.5" width="36" height="25" as="geometry" />
        </mxCell>
        <mxCell id="UIGNIDbdrB7S6Pe9TIcU-56" value="✗" style="rounded=1;whiteSpace=wrap;html=1;sketch=0;points=[[0,0.5,0,0,0],[1,0.5,0,0,0]];fillColor=#1ba1e2;fontColor=#ffffff;strokeColor=#006EAF;arcSize=50;fontFamily=Helvetica;fontSize=11;textOpacity=30;" vertex="1" parent="UIGNIDbdrB7S6Pe9TIcU-53">
          <mxGeometry x="120" y="60" width="36" height="25" as="geometry" />
        </mxCell>
        <mxCell id="UIGNIDbdrB7S6Pe9TIcU-57" value="Serve Timer" style="rounded=1;whiteSpace=wrap;html=1;container=1;recursiveResize=0;verticalAlign=top;arcSize=6;fontStyle=1;autosize=0;points=[];absoluteArcSize=1;shadow=1;strokeColor=#6c8ebf;fillColor=#dae8fc;fontFamily=Helvetica;fontSize=11;gradientColor=#0050EF;fontColor=default;" vertex="1" parent="1">
          <mxGeometry x="160" y="1200" width="138" height="100" as="geometry">
            <mxRectangle x="-98" y="-1230" width="99" height="26" as="alternateBounds" />
          </mxGeometry>
        </mxCell>
        <mxCell id="UIGNIDbdrB7S6Pe9TIcU-58" value="" style="rounded=1;whiteSpace=wrap;html=1;sketch=0;points=[[0,0.5,0,0,0],[1,0.5,0,0,0]];arcSize=50;fontFamily=Helvetica;fontSize=11;fontColor=default;" vertex="1" parent="UIGNIDbdrB7S6Pe9TIcU-57">
          <mxGeometry x="-16.75" y="27.5" width="36.75" height="25" as="geometry" />
        </mxCell>
        <mxCell id="UIGNIDbdrB7S6Pe9TIcU-59" value="" style="rounded=1;whiteSpace=wrap;html=1;sketch=0;points=[[0,0.5,0,0,0],[1,0.5,0,0,0]];fillColor=#1ba1e2;fontColor=#ffffff;strokeColor=#006EAF;arcSize=50;fontFamily=Helvetica;fontSize=11;" vertex="1" parent="UIGNIDbdrB7S6Pe9TIcU-57">
          <mxGeometry x="120" y="27.5" width="36" height="25" as="geometry" />
        </mxCell>
        <mxCell id="UIGNIDbdrB7S6Pe9TIcU-60" value="✗" style="rounded=1;whiteSpace=wrap;html=1;sketch=0;points=[[0,0.5,0,0,0],[1,0.5,0,0,0]];fillColor=#1ba1e2;fontColor=#ffffff;strokeColor=#006EAF;arcSize=50;fontFamily=Helvetica;fontSize=11;textOpacity=30;" vertex="1" parent="UIGNIDbdrB7S6Pe9TIcU-57">
          <mxGeometry x="120" y="60" width="36" height="25" as="geometry" />
        </mxCell>
      </root>
    </mxGraphModel>
  </diagram>
</mxfile>
